<svg width="448" height="568" viewBox="0 0 448 568" fill="none" xmlns="http://www.w3.org/2000/svg">
<path d="M369.623 36.3081C368.151 36.8991 366.681 37.4988 365.227 38.1423C364.684 38.3311 364.238 38.7415 363.699 38.9684C362.76 39.3736 361.804 39.7555 360.826 40.1054C359.849 40.4553 358.899 40.8548 357.951 41.2629C357.123 41.6406 356.325 42.0824 355.565 42.5841C355.098 42.9369 354.593 43.2346 354.058 43.4715C353.478 43.6998 352.869 43.8488 352.249 43.9144C351.839 43.9491 351.618 43.398 351.544 42.6486C351.452 41.8402 351.617 41.0233 352.017 40.3148C352.202 40.0666 352.412 39.8388 352.645 39.6353L353.377 39.145C353.874 38.8248 354.374 38.5134 354.892 38.2252C355.934 37.629 357.029 37.1327 358.164 36.7429C358.849 36.4859 359.504 36.1559 360.119 35.7587C360.747 35.3928 361.375 34.9976 362.036 34.6694C363.48 33.9411 364.952 33.2622 366.423 32.5834C367.318 32.1642 368.239 31.7651 369.139 31.3341C370.502 30.6831 371.91 30.1047 373.223 29.3634C373.738 29.0958 374.199 28.6998 374.708 28.4147C375.212 28.1104 375.732 27.8345 376.266 27.5881C376.497 27.467 376.734 27.3582 376.977 27.2622C377.182 27.1935 377.395 27.1523 377.611 27.1395C377.795 27.1591 377.973 27.2177 378.132 27.3115C378.436 27.4866 378.692 27.7352 378.875 28.0346C378.932 28.2009 379.095 28.3307 379.173 28.4704C379.304 28.7344 379.336 29.0366 379.264 29.3222C379.199 29.7112 379.071 30.0871 378.886 30.4352L377.814 31.6424L376.713 32.8499C376.532 33.0415 376.316 33.1966 376.077 33.3067L375.405 33.6878C374.951 33.9342 374.485 34.1748 374.013 34.3979C372.618 35.0992 371.155 35.7164 369.715 36.4037L369.623 36.3081Z" fill="#EB546F" fill-opacity="0.36"/>
<path d="M375.002 41.8366C372.601 42.9762 370.195 44.1275 367.822 45.3166C366.986 45.735 366.193 46.276 365.275 46.7131C362.193 48.2075 359.102 49.6756 356.051 51.2283C354.694 51.8968 353.388 52.6849 352.111 53.4726C350.537 54.6111 348.837 55.5649 347.045 56.3151C346.467 56.5162 346.066 55.6743 346.059 54.6953C345.98 53.5782 346.441 52.4909 347.299 51.7711C350.546 49.4576 354.038 47.5086 357.711 45.9593C359.933 45.039 361.993 43.6255 364.144 42.4745C366.513 41.2181 368.916 39.9994 371.306 38.7749L375.712 36.5156C377.927 35.3521 380.185 34.2525 382.334 32.9844C383.957 32.0074 385.498 30.7942 387.072 29.6772C387.418 29.4293 387.733 29.1526 388.097 28.9279C389.426 28.0926 390.015 28.123 390.916 29.0756C391.133 29.2797 391.336 29.4973 391.525 29.7272C391.814 30.1292 391.929 30.6299 391.846 31.1176C391.764 31.6054 391.489 32.0398 391.085 32.3243C388.376 34.6277 385.401 36.5986 382.224 38.1948C379.878 39.4627 377.463 40.6464 375.088 41.8853L375.002 41.8366Z" fill="#EB546F" fill-opacity="0.36"/>
<path d="M383.327 52.59C380.223 54.1903 377.114 55.8023 374.034 57.4432C372.907 58.0414 371.853 58.7617 370.767 59.3358C366.778 61.4108 362.771 63.4626 358.798 65.5814C357.031 66.5103 355.321 67.547 353.646 68.6009C351.565 70.071 349.346 71.3361 347.021 72.3784C346.259 72.6434 345.841 71.8076 345.946 70.6425C346.023 69.2751 346.7 68.0117 347.797 67.1914C352.077 64.2077 356.608 61.603 361.34 59.4068C364.214 58.1027 366.895 56.2471 369.694 54.6744C372.72 52.9638 375.814 51.2787 378.911 49.6023L384.624 46.4758C387.494 44.8786 390.405 43.3454 393.2 41.6467C395.36 40.3256 397.345 38.7811 399.413 37.3351C399.872 37.0184 400.29 36.667 400.764 36.3647C402.523 35.2717 403.317 35.2407 404.324 36.2447C404.574 36.458 404.811 36.687 405.033 36.9301C405.719 37.7712 405.4 38.9421 404.243 39.9334C400.62 42.8428 396.739 45.4154 392.648 47.6192C389.602 49.3565 386.475 51.0039 383.399 52.7122L383.327 52.59Z" fill="#EB546F" fill-opacity="0.36"/>
<path d="M382.871 46.4582C380.29 47.7291 377.707 48.9912 375.15 50.3029C374.206 50.7784 373.344 51.3731 372.406 51.8368C369.057 53.493 365.777 55.1249 362.475 56.7746C361.004 57.5121 359.591 58.3573 358.218 59.2371C356.516 60.4607 354.681 61.4878 352.748 62.2989C352.117 62.5183 351.716 61.6764 351.723 60.6239C351.678 59.4384 352.195 58.3012 353.119 57.557C356.628 55.0714 360.384 52.9553 364.328 51.2423C366.716 50.2348 368.932 48.7077 371.243 47.4521C373.793 46.0643 376.349 44.6941 378.931 43.3733L383.665 40.8723C386.037 39.5953 388.466 38.3675 390.761 36.9801C392.546 35.9073 394.156 34.611 395.846 33.4045C396.215 33.1388 396.56 32.8323 396.947 32.5898C398.389 31.6856 399.016 31.7126 399.932 32.7089C400.146 32.9289 400.387 33.1397 400.577 33.3776C400.875 33.809 400.989 34.3409 400.894 34.8563C400.799 35.3716 400.503 35.8281 400.071 36.1251C397.134 38.6016 393.928 40.741 390.513 42.5031C387.99 43.911 385.417 45.2581 382.846 46.5846L382.871 46.4582Z" fill="#EB546F" fill-opacity="0.36"/>
<path d="M382.637 70.1818C380.145 71.4809 377.574 72.8074 375.071 74.1594C374.151 74.6463 373.3 75.2467 372.38 75.7336L362.609 80.7924C361.174 81.5471 359.772 82.398 358.405 83.2367C356.717 84.4555 354.9 85.4859 352.987 86.3095C352.366 86.5258 352.019 85.7829 352.053 84.7799C352.059 83.6359 352.593 82.559 353.5 81.8618C356.981 79.4315 360.676 77.3244 364.539 75.5669C366.879 74.5072 369.067 73.0099 371.324 71.6846C373.821 70.2565 376.335 68.881 378.853 67.4848L383.485 64.8913C385.816 63.5797 388.179 62.2765 390.454 60.9158C392.213 59.8228 393.808 58.5413 395.493 57.3467C395.862 57.081 396.201 56.7863 396.587 56.5438C398.021 55.6426 398.639 55.6433 399.518 56.5053C399.733 56.6964 399.936 56.9014 400.124 57.1188C400.727 57.8906 400.496 58.8639 399.557 59.6912C396.654 62.122 393.521 64.2641 390.202 66.0871C387.753 67.5087 385.194 68.8702 382.688 70.272L382.637 70.1818Z" fill="#EB546F" fill-opacity="0.36"/>
<path d="M389.023 60.3832C385.701 62.1182 382.382 63.862 379.075 65.6407C377.862 66.2986 376.725 67.0669 375.514 67.7042C371.22 69.9445 366.932 72.2022 362.673 74.4889C360.784 75.4898 358.937 76.6133 357.14 77.7391C354.889 79.3007 352.507 80.6648 350.021 81.8163C349.222 82.1433 348.862 81.3068 348.991 80.153C349.175 78.7414 349.937 77.4698 351.096 76.643C355.718 73.4677 360.582 70.6595 365.643 68.2442C368.717 66.8115 371.613 64.8417 374.663 63.1425L384.601 57.633L390.727 54.2548C393.806 52.5259 396.932 50.8492 399.949 49.083C402.281 47.6629 404.423 46.0343 406.661 44.5099C407.16 44.1692 407.613 43.8056 408.127 43.4794C410.017 42.3113 410.802 42.2541 411.846 43.1667C412.069 43.3679 412.278 43.5835 412.473 43.8122C413.152 44.6065 412.766 45.7812 411.495 46.8121C407.555 49.8762 403.37 52.6125 398.983 54.9936C395.71 56.8687 392.403 58.6474 389.057 60.5088L389.023 60.3832Z" fill="#EB546F" fill-opacity="0.36"/>
<path d="M393.656 69.6351C390.495 71.2947 387.324 72.9573 384.184 74.6489C383.034 75.2649 381.953 75.9944 380.8 76.6017L368.617 83.0493C366.818 83.9993 365.07 85.0687 363.361 86.1347C361.22 87.6196 358.957 88.9193 356.596 90.0196C355.817 90.2907 355.447 89.5364 355.602 88.4028C355.769 87.056 356.492 85.8404 357.595 85.0496C361.989 82.0327 366.613 79.364 371.423 77.0677C374.336 75.7104 377.088 73.8304 379.942 72.2188L389.383 66.9709L395.206 63.7667C398.134 62.1394 401.106 60.5263 403.962 58.8355C406.172 57.4874 408.216 55.9421 410.307 54.5076C410.775 54.1878 411.21 53.8303 411.693 53.525C413.496 52.4167 414.234 52.366 415.245 53.2702C415.483 53.4602 415.711 53.6627 415.927 53.8769C416.573 54.6335 416.204 55.7435 414.969 56.7622C411.224 59.674 407.249 62.2751 403.081 64.5398C399.962 66.3219 396.784 68.017 393.641 69.7877L393.656 69.6351Z" fill="#EB546F" fill-opacity="0.36"/>
<path d="M398.804 79.974C396.123 81.4075 393.427 82.8264 390.776 84.3181C389.804 84.8527 388.904 85.5094 387.929 86.0352L377.569 91.603C376.029 92.4234 374.555 93.3486 373.105 94.2851C371.313 95.6076 369.376 96.7226 367.333 97.6088C366.667 97.8404 366.275 96.9954 366.302 95.9456C366.272 94.7023 366.819 93.515 367.785 92.731C371.47 90.0894 375.383 87.7817 379.478 85.8354C382.016 84.6676 384.263 83.0024 386.666 81.5873C389.316 80.037 391.99 78.5274 394.658 77.0003L399.575 74.2096C402.022 72.7792 404.586 71.4059 406.994 69.8911C408.872 68.7173 410.566 67.3232 412.363 66.0597C412.755 65.776 413.132 65.4486 413.533 65.1913C415.063 64.2273 415.722 64.2333 416.7 65.2083C416.933 65.4158 417.155 65.637 417.362 65.8709C418 66.6892 417.771 67.7797 416.774 68.6664C413.681 71.256 410.345 73.541 406.812 75.4894C404.191 77.0394 401.49 78.4994 398.843 80.0292L398.804 79.974Z" fill="#EB546F" fill-opacity="0.36"/>
<path d="M391.911 78.2426L384.429 82.3773C383.527 82.8875 382.676 83.4879 381.762 83.9923L372.114 89.2635C370.679 90.0474 369.292 90.9128 367.935 91.7778C366.243 92.9955 364.433 94.0397 362.532 94.8944C361.919 95.1076 361.608 94.4404 361.675 93.5045C361.75 92.4002 362.303 91.3836 363.189 90.7203C366.657 88.2747 370.314 86.1094 374.126 84.245C376.442 83.1447 378.6 81.5891 380.849 80.2669L388.319 75.93L392.91 73.2726C395.217 71.9203 397.568 70.6113 399.795 69.1692C401.536 68.0529 403.12 66.7658 404.778 65.551C405.146 65.2852 405.485 64.9906 405.86 64.7424C407.273 63.8092 407.879 63.7749 408.736 64.5463C408.942 64.7127 409.138 64.8902 409.324 65.078C409.886 65.736 409.655 66.68 408.72 67.516C405.819 69.9469 402.707 72.1136 399.421 73.9903C396.99 75.4645 394.467 76.8724 391.986 78.3149L391.911 78.2426Z" fill="#EB546F" fill-opacity="0.36"/>
<path d="M401.371 87.2377C399.463 88.3239 397.546 89.4425 395.667 90.5869C394.969 91.0065 394.345 91.5277 393.641 91.9297C391.198 93.3688 388.646 94.7772 386.14 96.179C385.017 96.7859 383.959 97.4974 382.913 98.1854C381.632 99.1977 380.214 100.022 378.7 100.633C378.201 100.806 377.825 100.034 377.757 99.1061C377.609 98.1422 377.939 97.1666 378.643 96.4914C381.263 94.5151 384.075 92.8068 387.036 91.392C388.809 90.4187 390.514 89.3269 392.14 88.124C394.006 86.9152 395.908 85.7236 397.821 84.5377L401.351 82.328C403.136 81.2258 404.975 80.1933 406.719 79.0565C408.068 78.1652 409.276 77.097 410.597 76.0977C410.884 75.8799 411.142 75.6332 411.438 75.4417C412.548 74.7119 413.059 74.7697 413.892 75.6968C414.091 75.8994 414.28 76.1122 414.457 76.3343C415.013 77.0684 414.913 78.1057 414.228 78.7205C412.079 80.6899 409.715 82.4112 407.181 83.852C405.311 84.9934 403.415 86.1439 401.501 87.2712L401.371 87.2377Z" fill="#EB546F" fill-opacity="0.36"/>
<path d="M403.341 92.1359C402.252 92.7013 401.151 93.261 400.072 93.8527C399.676 94.0689 399.351 94.378 398.95 94.5768C397.537 95.3135 396.104 96.0182 394.633 96.6678C394.004 96.9845 393.398 97.343 392.818 97.7411C392.116 98.3253 391.301 98.759 390.425 99.0154C390.145 99.1128 389.862 98.5537 389.745 97.9074C389.628 97.2611 389.635 96.493 390.006 96.1481C391.327 94.9038 392.83 93.868 394.462 93.0762C395.476 92.5936 396.436 92.0063 397.327 91.3237C398.391 90.6883 399.462 90.0704 400.533 89.4525L402.517 88.3008C403.538 87.7392 404.584 87.2184 405.543 86.5902C405.921 86.3507 406.242 86.0329 406.62 85.7934C406.98 85.5315 407.355 85.2897 407.742 85.0693C407.91 84.9646 408.083 84.8684 408.26 84.7811C408.954 84.4906 409.265 84.5392 409.661 84.9708C409.749 85.0505 409.832 85.1366 409.907 85.2285C410.115 85.6354 410.053 86.128 409.751 86.4705C409.27 87.1481 408.787 87.8462 408.268 88.5273C407.698 89.1154 407.083 89.6577 406.428 90.149C405.952 90.5305 405.459 90.8887 404.965 91.2469C404.444 91.6054 403.903 91.9345 403.345 92.2326L403.341 92.1359Z" fill="#EB546F" fill-opacity="0.36"/>
<g opacity="0.3" filter="url(#filter0_f_307_28359)">
<ellipse cx="224.5" cy="284.5" rx="124.015" ry="140.5" fill="#220257"/>
</g>
<defs>
<filter id="filter0_f_307_28359" x="30.824" y="74.3387" width="387.352" height="420.323" filterUnits="userSpaceOnUse" color-interpolation-filters="sRGB">
<feFlood flood-opacity="0" result="BackgroundImageFix"/>
<feBlend mode="normal" in="SourceGraphic" in2="BackgroundImageFix" result="shape"/>
<feGaussianBlur stdDeviation="34.8307" result="effect1_foregroundBlur_307_28359"/>
</filter>
</defs>
</svg>
