<svg width="448" height="568" viewBox="0 0 448 568" fill="none" xmlns="http://www.w3.org/2000/svg">
<g clip-path="url(#clip0_312_413)">
<path d="M526 30.0207C525.267 31.1265 524.585 32.1533 523.91 33.1729C515.514 46.2128 506.011 58.3263 494.897 69.2083C489.524 74.4717 484.974 80.5644 479.649 85.8888C474.686 90.8505 468.954 95.0511 464.041 100.056C453.483 110.791 441.384 119.454 429.006 127.902C410.712 140.389 391.679 140.64 371.999 132.246C360.64 127.396 350.158 120.88 339.995 113.893C335.115 110.527 330.879 106.312 327.49 101.449C324.028 96.516 320.735 91.4645 317.467 86.4022C312.813 79.2145 310.913 71.2334 311.003 62.7065C311.11 48.7023 314.23 34.885 320.153 22.1939C325.547 10.5829 331.552 -0.747922 337.355 -12.165C347.134 -31.4124 359.872 -48.7353 372.516 -66.1158C374.423 -68.7403 376.395 -71.3073 378.413 -74L392.261 -63.6385C391.74 -62.3246 391.152 -61.0388 390.497 -59.7862C384.64 -49.8448 378.837 -39.8495 372.771 -29.9942C368.43 -22.9321 363.632 -16.1538 359.222 -9.13121C352.6 1.55549 347.022 12.8548 342.566 24.6102C338.673 34.6845 334.665 44.7156 330.934 54.8509C330.037 57.1836 329.675 59.6876 329.875 62.1786C330.537 68.6762 331.534 75.1354 332.863 81.5302C335.057 91.6224 340.709 99.6144 348.933 105.84C356.541 111.657 364.988 116.287 373.985 119.569C386.752 124.168 399.518 124.057 412.278 118.977C422.085 115.074 430.112 108.802 437.567 101.593C448.218 91.2886 458.895 81.0072 469.597 70.7486C484.148 56.8417 497.124 41.3749 508.288 24.6281C509.114 23.3858 510.07 22.2298 511.176 20.7506L526 30.0207ZM394.458 -58.5691C388.45 -50.1571 383.484 -41.1347 379.009 -31.8359C371.78 -16.9112 364.77 -1.8824 357.487 13.0172C352.521 23.1741 347.209 33.1586 342.121 43.2508C340.056 47.3401 338.569 51.6987 339.09 56.3338C340.084 65.4423 340.778 74.6513 343.83 83.3828C346.743 91.7086 351.91 98.5337 359.567 102.957C371.32 109.746 383.818 114.277 397.604 115.193C405.692 115.724 412.845 114.051 419.266 109.333C424.416 105.535 429.71 101.822 434.31 97.4028C443.64 88.4415 452.668 79.1355 461.574 69.7721C468.929 62.0459 476.197 54.2334 483.075 46.0297C490.371 37.2076 496.849 27.7392 502.427 17.742C502.835 16.9009 503.179 16.0308 503.458 15.139L491.711 6.35365C491.241 6.91732 490.968 7.18298 490.763 7.49533C479.519 24.7537 465.801 39.9836 451.451 54.6175C442.415 63.8373 432.353 72.0591 422.642 80.6039C416.821 85.7057 410.073 89.3354 402.909 92.1968C398.67 93.8591 394.062 94.3515 389.567 93.6222C384.015 92.7965 378.995 90.549 374.071 87.9819C369.392 85.537 366.573 81.8354 365.136 76.8952C362.702 68.7165 362.321 60.3225 362.781 51.871C363.19 44.5038 365.571 37.5925 368.343 30.8285C373.475 18.4097 378.266 5.8295 384.073 -6.27328C390.171 -18.9326 397.313 -31.0928 404 -43.4649C405.656 -46.5202 407.322 -49.5719 409.128 -52.9001L396.419 -61.1325C395.615 -60.1201 395.015 -59.3554 394.451 -58.5619L394.458 -58.5691ZM404.593 -37.3938C400.643 -27.7487 396.197 -18.314 391.273 -9.12753C384.242 4.22826 378.83 18.3271 374.129 32.6774C371.974 39.2476 369.859 45.8142 368.968 52.7219C368.056 59.7875 368.986 66.5839 372.096 72.9315C376.463 81.8497 383.732 86.5602 393.762 86.571C401.662 86.571 408.349 83.2033 414.476 78.5575C419.284 74.9206 424.14 71.3015 428.625 67.284C433.75 62.6777 438.688 57.8201 443.335 52.7291C449.264 46.2343 454.722 39.3123 460.561 32.7349C468.667 23.6049 476.93 14.6328 485.096 5.61403C485.919 4.70569 486.698 3.75432 487.75 2.52286L473.957 -7.79915C473.436 -7.31446 472.951 -6.93033 472.552 -6.47436C466.045 1.02211 459.186 8.24576 453.117 16.0869C442.153 30.2577 430.295 43.5344 416.903 55.4074C411.811 59.924 406.414 64.0348 400.395 67.2445C395.098 70.07 390.048 69.4669 386.087 65.7941C383.204 63.1265 382.73 59.7445 383.049 56.1148C383.933 45.9758 387.183 36.4436 390.982 27.1305C399.097 7.09504 408.322 -12.4723 418.616 -31.4805C420.706 -35.3221 422.739 -39.1924 424.912 -43.2602C421.206 -45.4574 417.672 -47.5685 414.113 -49.6473C413.295 -50.0506 412.456 -50.4101 411.599 -50.7244C409.2 -46.2222 406.432 -41.9893 404.586 -37.3866L404.593 -37.3938Z" fill="#EB546F"/>
<g opacity="0.4">
<path d="M314.752 650L289.154 636.75L289.175 636.609C289.969 631.439 290.788 626.295 291.582 621.317C293.398 609.922 295.128 599.154 296.546 588.223C298.804 570.951 298.695 553.453 296.223 536.21C293.095 514.415 288.039 492.939 281.116 472.037C276.018 456.573 268.925 441.84 260.017 428.211C244.747 404.953 226.074 384.118 204.621 366.402C181.625 347.38 159.633 333.804 137.384 324.898C116.689 316.612 97.1145 313.059 77.5362 314.034C57.0396 315.055 35.8445 318.619 14.5324 324.632C2.51312 328.021 -10.2649 332.28 -22.2558 340.417C-42.2135 353.957 -57.9591 368.532 -70.4145 384.991C-72.6269 387.909 -75.0485 390.593 -77.6154 393.429C-78.7926 394.734 -80.0122 396.081 -81.2177 397.464L-81.3347 397.599L-81.4836 397.496C-84.7668 395.209 -88.1031 393.032 -91.3295 390.929C-98.2929 386.381 -104.87 382.087 -110.901 376.832L-111 376.744L-110.957 376.62C-109.628 372.518 -107.203 370.316 -104.622 368.242L-101.665 365.866C-94.0985 359.796 -86.2771 353.521 -78.789 347.05C-50.0385 322.203 -18.5153 304.199 14.9082 293.541C42.3718 284.784 63.3967 282.196 83.0743 285.199C116.718 290.308 152.339 297.097 184.905 312.045C205.114 321.327 219.747 329.996 232.312 340.154C242.651 348.511 253.496 357.704 266.445 369.082C284.984 385.391 298.606 405.221 306.924 428.065C315.553 451.749 321.638 474.249 325.531 496.848C328.64 514.909 329.509 531.24 328.176 546.726C326.151 570.318 323.758 593.591 321.085 615.896C320.18 623.373 318.652 630.787 317.032 638.661C316.295 642.253 315.529 645.965 314.816 649.734L314.752 650ZM289.579 636.527L314.444 649.397C315.153 645.713 315.89 642.09 316.614 638.58C318.23 630.727 319.758 623.309 320.659 615.85C323.347 593.548 325.736 570.279 327.75 546.691C329.076 531.225 328.215 514.941 325.109 496.915C321.209 474.341 315.139 451.866 306.52 428.203C298.223 405.423 284.64 385.632 266.15 369.383C253.209 358.009 242.367 348.819 232.032 340.463C219.495 330.33 204.902 321.671 184.71 312.407C152.19 297.48 116.601 290.701 82.9856 285.596C63.3718 282.618 42.4037 285.185 15.004 293.924L14.9437 293.733L15.004 293.924C-18.3699 304.561 -49.847 322.54 -78.555 347.352C-86.0502 353.829 -93.8752 360.115 -101.441 366.178L-104.402 368.554C-106.905 370.568 -109.259 372.702 -110.564 376.616C-104.583 381.817 -98.0518 386.079 -91.138 390.593C-87.9471 392.67 -84.671 394.812 -81.4304 397.067C-80.2604 395.727 -79.0798 394.425 -77.9416 393.167C-75.3818 390.33 -72.9779 387.657 -70.762 384.75C-58.2818 368.259 -42.5007 353.655 -22.5146 340.097C-10.4599 331.943 2.33938 327.66 14.3941 324.26C35.731 318.232 56.9403 314.687 77.483 313.648C97.1216 312.673 116.753 316.233 137.501 324.54C159.789 333.464 181.82 347.061 204.845 366.107C226.328 383.85 245.028 404.715 260.322 428.005C269.256 441.662 276.373 456.426 281.492 471.923C288.419 492.845 293.48 514.339 296.613 536.154C299.088 553.431 299.197 570.966 296.936 588.273C295.518 599.211 293.791 609.978 291.972 621.377C291.192 626.312 290.38 631.404 289.593 636.527H289.579ZM274.192 628.036L264.948 622.746C255.166 617.14 245.93 611.847 236.613 606.546C234.932 605.589 234.698 604.032 234.861 601.987C235.12 598.75 235.272 595.463 235.421 592.286L235.499 590.613C236.811 563.124 233.397 537.136 229.472 510.718C225.593 484.609 217.417 461.145 205.221 440.981C204.051 439.049 202.831 437.103 201.654 435.224C199.917 432.451 198.108 429.586 196.442 426.714C185.678 408.207 169.716 395.092 147.645 386.615C133.52 381.193 117.604 377.971 98.983 376.765C66.265 374.638 35.9934 378.428 6.44509 388.32C-0.393012 390.589 -6.79011 394.016 -12.4667 398.453C-20.6213 404.863 -28.6129 411.252 -38.0724 418.868C-39.4657 419.988 -40.8059 421.24 -42.1036 422.449C-42.6992 423.009 -43.2902 423.561 -43.8764 424.105L-43.9969 424.211L-67.7908 407.547L-67.6738 407.384C-67.0321 406.477 -66.44 405.611 -65.8692 404.778C-64.6672 403.005 -63.5362 401.367 -62.2882 399.864C-60.3134 397.482 -58.1825 395.177 -56.1261 392.943C-55.5163 392.286 -54.91 391.628 -54.3073 390.968C-38.5404 373.72 -23.3585 360.626 -7.89296 350.947C14.0254 337.229 37.9434 331.446 69.6509 332.155C72.9093 332.23 76.235 332.233 79.4507 332.237C81.6348 332.237 83.8933 332.237 86.1092 332.262C88.3252 332.287 90.534 332.262 92.7003 332.262C97.774 332.212 103.025 332.159 108.049 332.698C123.741 334.393 139.317 339.303 158.555 348.617C169.478 353.911 180.781 360.193 189.425 370.266L190.361 371.358C193.46 374.968 196.658 378.697 199.874 382.293C200.562 383.063 201.247 383.835 201.93 384.608C204.714 387.753 207.603 390.99 210.652 393.925C213.187 396.347 215.879 398.683 218.477 400.946C222.377 404.349 226.448 407.87 230.057 411.749C241.305 423.792 250.525 437.58 257.357 452.575C264.243 467.732 268.799 484.503 270.901 502.418C272.472 515.813 273.802 526.106 275.206 535.799C279.364 564.496 277.957 593.8 276.028 618.679C275.828 620.559 275.493 622.423 275.028 624.256C274.78 625.355 274.521 626.493 274.266 627.784L274.192 628.036ZM81.6596 375.772C87.3773 375.772 93.1683 375.961 99.0326 376.34C117.696 377.549 133.651 380.779 147.815 386.217C169.975 394.727 186.004 407.898 196.814 426.487C198.488 429.37 200.282 432.231 202.019 434.997C203.196 436.879 204.416 438.822 205.589 440.758C217.829 460.968 226.008 484.485 229.894 510.647C233.822 537.083 237.237 563.092 235.921 590.616L235.843 592.29C235.694 595.481 235.542 598.76 235.283 602.004C235.127 603.951 235.329 605.33 236.832 606.185C246.15 611.503 255.39 616.779 265.168 622.38L273.929 627.397C274.167 626.206 274.415 625.111 274.638 624.132C275.098 622.319 275.43 620.475 275.631 618.615C277.556 593.758 278.964 564.482 274.808 535.82C273.39 526.123 272.075 515.827 270.504 502.429C266.349 467.009 252.642 436.578 229.756 411.986C226.16 408.125 222.119 404.608 218.208 401.211C215.606 398.946 212.911 396.602 210.369 394.181C207.298 391.249 204.412 387.99 201.622 384.838C200.938 384.065 200.257 383.292 199.569 382.527C196.35 378.924 193.148 375.194 190.053 371.585L189.113 370.493C180.519 360.477 169.259 354.216 158.374 348.943C139.178 339.647 123.628 334.761 107.999 333.063C103 332.524 97.7598 332.574 92.6968 332.627C90.5305 332.648 88.2897 332.67 86.095 332.645C83.9004 332.62 81.6277 332.62 79.4437 332.616C76.2243 332.616 72.8986 332.616 69.6368 332.538C38.0108 331.829 14.1601 337.591 -7.68731 351.266C-23.1209 360.927 -38.2744 373.993 -54.0201 391.217C-54.6228 391.876 -55.2291 392.536 -55.8389 393.195C-57.8918 395.422 -60.0191 397.726 -61.9868 400.098C-63.2242 401.591 -64.3517 403.236 -65.5324 404.98C-66.0713 405.767 -66.6244 406.579 -67.2235 407.43L-44.0217 423.672C-43.4651 423.165 -42.912 422.648 -42.3553 422.13C-41.0541 420.914 -39.7068 419.648 -38.3028 418.528C-28.8398 410.908 -20.866 404.523 -12.6936 398.109C-6.98083 393.644 -0.542935 390.195 6.33873 387.912C30.629 379.789 55.4264 375.772 81.6596 375.772Z" fill="#220257"/>
</g>
</g>
<defs>
<clipPath id="clip0_312_413">
<rect width="448" height="568" fill="white"/>
</clipPath>
</defs>
</svg>
