<svg width="448" height="568" viewBox="0 0 448 568" fill="none" xmlns="http://www.w3.org/2000/svg">
<g clip-path="url(#clip0_312_421)">
<path d="M406.1 71.4469C406.421 71.5081 406.744 71.5475 407.068 71.5648C407.251 71.5811 407.435 71.5459 407.608 71.4616C407.703 71.2615 407.703 71.2615 407.642 71.077C407.581 70.8926 407.303 70.4033 407.03 69.946L406.594 69.252L406.438 69.1315L405.886 68.4573L404.332 66.3509L391.384 50.496C386.989 45.0947 382.413 39.9375 378.122 34.316L370.659 24.4855C367.513 20.5635 364.613 16.3315 361.986 11.8279L361.162 9.84698C360.876 9.26862 360.66 8.6391 360.518 7.9786C360.24 6.9736 360.075 5.92264 360.025 4.85634C359.954 3.99715 359.925 3.13255 359.939 2.26775C359.904 2.03403 359.923 1.7916 359.995 1.57066C360.111 1.27593 360.283 1.02272 360.496 0.834314C360.803 0.538749 361.136 0.290533 361.489 0.094866C363.127 -0.782774 364.871 -1.28942 366.64 -1.40227C369.474 -1.40697 372.296 -0.990335 375.049 -0.16075C378.151 0.622273 381.278 1.53356 384.442 2.50101L388.16 3.64979L390.883 4.46817L402.494 8.15976C411.735 11.1418 421.059 13.5029 430.263 15.9359C436.168 17.4614 442.128 18.7825 448.05 20.1838C451.002 20.9692 453.964 21.7346 456.936 22.48L461.336 23.7182C462.805 24.1696 464.222 24.9095 465.665 25.5051C469.182 27.0743 468.541 29.2649 464.98 31.7185C462.737 33.3452 460.296 34.4697 457.762 35.043C454.539 35.7817 451.247 35.8203 448.023 35.1574C441.837 33.9079 435.696 32.4742 429.588 30.9284C426.541 30.1615 423.489 29.3625 420.465 28.5035L411.392 25.7061C405.379 23.7958 399.377 21.8028 393.387 19.7269L384.426 16.6052C384.286 16.4967 383.96 16.4641 383.954 16.432L383.206 15.8536L381.999 15.1662C380.825 14.5608 379.601 14.1284 378.348 13.8774C378.224 13.781 377.991 13.8206 377.868 13.9446C377.745 14.0686 377.948 14.2252 377.987 14.3655L378.448 15.1878C378.779 15.7453 379.15 16.307 379.506 16.8566L380.806 18.602L382.407 20.6083L390.577 30.2999C396.269 37.0058 402.106 43.6319 407.933 50.2779L418.128 61.8925C420.428 64.408 422.619 67.0818 424.691 69.9022C425.953 72.0971 427.008 74.4769 427.832 76.9921C427.975 77.54 428.093 78.0981 428.186 78.6637C428.352 79.3318 428.317 80.0574 428.088 80.699C427.372 82.1949 426.326 83.3895 425.084 84.1314C423.782 85.0287 422.4 85.7179 420.969 86.1833C417.377 87.2056 413.71 87.7069 410.038 87.6779C409.075 87.7282 408.085 87.7023 407.117 87.7206C406.148 87.7389 405.014 87.6566 404.507 87.6477L400.576 87.348C397.932 87.1668 395.301 86.9136 392.636 86.6883C376.876 84.6241 361.242 81.2912 345.826 76.7095C333.905 73.3539 322.136 70.3072 310.42 65.9863C307.861 65.048 305.3 64.246 302.746 63.1193C299.316 61.8872 296.078 59.9284 293.163 57.3239C292.351 56.4171 291.68 55.3217 291.186 54.0947C290.779 52.9061 290.511 51.6461 290.391 50.3548C290.201 49.2716 290.07 48.1722 290 47.0645C290.034 45.4738 291.157 44.6425 293.328 43.9372C296.151 43.2221 299.066 43.4636 301.781 44.6379C321.973 51.4866 343.081 59.0983 364.661 64.3348C372.669 66.2808 380.73 67.9384 388.755 69.2674C392.749 69.8356 396.782 70.3239 400.872 70.692L403.939 70.926L405.427 70.9808L405.536 71.0652L405.874 71.1619L406.1 71.4469Z" fill="#ffb142" fill-opacity="0.3"/>
<path d="M434.747 -5.86816C436.567 -4.89174 438.432 -4.05345 440.331 -3.35763C441.019 -3.09993 441.764 -3.09856 442.467 -2.82881C444.968 -1.9908 447.485 -0.784122 450.08 -0.0100436C451.228 0.326655 452.39 0.57631 453.562 0.737616C455.101 0.830962 456.61 1.29171 458.011 2.09609C458.432 2.42142 458.183 3.4347 457.601 4.51949C457.105 5.56398 456.291 6.2971 455.356 6.53884C452.351 6.64897 449.35 6.28821 446.42 5.46464C444.576 4.86023 442.669 5.05707 440.779 4.63689C438.89 4.21671 436.619 3.61152 434.55 2.94258C433.293 2.49151 432.037 2.04044 430.768 1.52523C428.875 0.800523 427.015 -0.172556 425.115 -0.929331C423.634 -1.44493 422.04 -1.63617 420.441 -1.99571C420.088 -2.10455 419.722 -2.14128 419.387 -2.29015C418.163 -2.85335 418.047 -3.68299 418.857 -6.18179C419.105 -6.70223 419.214 -7.33111 419.441 -7.89566C419.857 -9.46885 420.892 -10.6499 422.16 -11C424.688 -10.8372 427.161 -10.0332 429.435 -8.63463C431.145 -7.74998 432.827 -6.80528 434.739 -5.98437L434.747 -5.86816Z" fill="#ffb142" fill-opacity="0.3"/>
<path d="M330.19 100.028C328.734 99.5048 327.298 98.8049 325.836 98.1131L321.521 96.1178C320.462 95.655 319.335 95.4686 318.28 94.9538C314.568 93.1239 310.882 91.1498 307.247 89.1597C305.623 88.3153 303.926 87.7151 302.264 87.087C301.224 86.5843 300.152 86.1936 299.116 85.6388C298.087 85.0345 297.115 84.2826 296.219 83.3976C295.612 82.9277 296.101 81.6344 297.038 80.5222C297.986 79.2298 299.289 78.4574 300.668 78.3692L303.834 79.0641C304.892 79.3065 305.948 79.6851 306.989 80.0516C309.11 80.7832 311.19 81.6959 313.214 82.7837C315.788 83.8546 318.445 84.578 321.141 84.9419L330.008 87.2782C331.852 87.8826 333.678 88.527 335.448 89.0191C338.206 89.8095 340.99 90.8123 343.779 91.2702C346.009 91.4674 348.249 91.4782 350.482 91.3025C350.99 91.3115 351.499 91.1842 351.978 91.2532C353.803 91.541 354.218 92.5475 353.955 96.045C353.893 96.8463 353.855 97.6396 353.752 98.4367C353.669 100.663 352.564 102.627 350.936 103.44C346.972 104.329 342.913 104.158 339.018 102.937C336.074 102.223 333.171 101.156 330.169 100.341L330.19 100.028Z" fill="#ffb142" fill-opacity="0.3"/>
<path d="M69.4043 588.753C69.6031 589.011 69.8184 589.255 70.0491 589.484C70.1753 589.617 70.3364 589.714 70.5212 589.765C70.7256 589.679 70.7256 589.679 70.8023 589.5C70.8791 589.322 70.9962 588.771 71.0965 588.249L71.2313 587.44L71.195 587.246L71.2298 586.375L71.4679 583.769L72.3229 563.317C72.6257 556.359 72.6315 549.465 73.1592 542.413L74.1113 530.107C74.3656 525.086 75.0096 519.996 76.0375 514.884L76.7372 512.856C76.9083 512.234 77.1644 511.62 77.4974 511.032C77.9576 510.097 78.5318 509.201 79.2034 508.371C79.7207 507.681 80.2735 507.016 80.8586 506.379C80.9874 506.181 81.163 506.013 81.3632 505.895C81.6461 505.752 81.943 505.677 82.2269 505.677C82.6529 505.661 83.0669 505.697 83.4603 505.784C85.2681 506.217 86.9077 506.996 88.3054 508.088C90.4266 509.967 92.2589 512.153 93.7654 514.601C95.5644 517.248 97.2962 520.006 99.0184 522.831L101.034 526.16L102.526 528.58L108.752 539.053C113.678 547.421 119.078 555.38 124.342 563.313C127.742 568.376 131.319 573.323 134.815 578.304C136.5 580.853 138.205 583.392 139.931 585.924L142.397 589.772C143.195 591.086 143.763 592.58 144.446 593.984C146.032 597.493 144.098 598.705 139.806 598.173C137.049 597.899 134.477 597.117 132.202 595.863C129.303 594.274 126.816 592.116 124.848 589.479C121.054 584.435 117.416 579.284 113.877 574.071C112.11 571.473 110.359 568.848 108.669 566.197L103.746 558.079C100.521 552.657 97.3588 547.18 94.2602 541.649L89.6364 533.363C89.6036 533.188 89.3819 532.948 89.3987 532.92L89.2241 531.991L88.7782 530.675C88.3033 529.443 87.6751 528.306 86.906 527.286C86.8769 527.131 86.6769 527.007 86.5025 527.018C86.328 527.028 86.3753 527.28 86.3117 527.411L86.1097 528.332C85.9867 528.968 85.8914 529.635 85.7925 530.282L85.6043 532.45L85.4684 535.014L85.1364 547.685C84.9361 556.479 84.897 565.309 84.8375 574.148L84.7418 589.602C84.7898 593.01 84.651 596.464 84.3259 599.948C83.8114 602.427 83.0185 604.907 81.9638 607.334C81.7065 607.839 81.424 608.334 81.1176 608.819C80.7982 609.429 80.2902 609.948 79.6927 610.275C78.1635 610.917 76.5885 611.116 75.167 610.845C73.5978 610.651 72.1067 610.248 70.7278 609.645C67.3643 608.023 64.2905 605.962 61.5648 603.5C60.812 602.898 60.089 602.221 59.353 601.592C58.6169 600.962 57.824 600.147 57.4505 599.803L54.7115 596.968C52.8558 595.076 51.0579 593.139 49.2153 591.2C38.8067 579.187 29.335 566.31 20.8565 552.645C14.1757 542.217 7.40267 532.121 1.51632 521.109C0.226622 518.707 -1.15438 516.407 -2.31552 513.867C-4.06017 510.668 -5.17969 507.053 -5.62772 503.17C-5.63274 501.952 -5.4064 500.688 -4.96048 499.443C-4.47517 498.284 -3.83827 497.164 -3.07017 496.119C-2.49252 495.183 -1.8598 494.275 -1.17659 493.4C-0.0941626 492.234 1.29694 492.358 3.38825 493.273C5.97383 494.615 7.9918 496.731 9.24113 499.413C19.7839 517.946 30.5041 537.657 43.1557 555.908C47.8484 562.682 52.7718 569.276 57.8874 575.601C60.4956 578.679 63.1856 581.723 65.9982 584.715L68.1347 586.927L69.2106 587.957L69.2361 588.092L69.4242 588.389L69.4043 588.753Z" fill="#52656F" fill-opacity="0.3"/>
<path d="M142.178 549.995C142.89 551.934 143.727 553.799 144.684 555.581C145.027 556.23 145.584 556.726 145.93 557.395C147.242 559.683 148.322 562.256 149.747 564.559C150.381 565.573 151.085 566.532 151.853 567.431C152.941 568.523 153.763 569.87 154.276 571.402C154.374 571.925 153.515 572.517 152.359 572.941C151.295 573.393 150.199 573.399 149.34 572.959C147.021 571.045 145.018 568.782 143.375 566.22C142.398 564.543 140.842 563.423 139.708 561.854C138.575 560.284 137.28 558.324 136.178 556.449C135.538 555.277 134.899 554.105 134.293 552.878C133.359 551.078 132.615 549.115 131.698 547.287C130.933 545.918 129.869 544.716 128.913 543.385C128.721 543.069 128.472 542.798 128.321 542.465C127.78 541.231 128.245 540.534 130.51 539.204C131.041 538.98 131.54 538.582 132.085 538.311C133.441 537.411 134.999 537.216 136.18 537.797C137.961 539.598 139.275 541.842 140.045 544.398C140.736 546.195 141.366 548.019 142.249 549.902L142.178 549.995Z" fill="#52656F" fill-opacity="0.3"/>
<path d="M-6.3217 559.687C-7.06243 558.328 -7.67097 556.851 -8.3036 555.363L-10.2037 551.005C-10.6877 549.955 -11.4061 549.068 -11.8529 547.982C-13.4117 544.148 -14.8552 540.224 -16.2506 536.321C-16.9028 534.612 -17.7726 533.036 -18.5978 531.462C-19.0409 530.395 -19.5826 529.391 -19.9885 528.288C-20.3566 527.153 -20.5836 525.945 -20.6651 524.689C-20.8069 523.934 -19.5818 523.292 -18.143 523.083C-16.5754 522.747 -15.0887 523.035 -13.9992 523.886L-12.0943 526.509C-11.4649 527.392 -10.9269 528.377 -10.3925 529.342C-9.29279 531.298 -8.34479 533.362 -7.55482 535.52C-6.34214 538.03 -4.83667 540.336 -3.06292 542.399L2.01241 550.036C2.98943 551.713 3.92557 553.407 4.92165 554.951C6.45804 557.374 7.87316 559.973 9.65347 562.168C11.1895 563.797 12.856 565.293 14.6425 566.645C15.0159 566.989 15.4807 567.232 15.7929 567.602C16.9657 569.029 16.6074 570.058 14.0877 572.497C13.5086 573.055 12.9535 573.623 12.3466 574.15C10.8059 575.759 8.67494 576.493 6.91798 576.019C3.36449 574.05 0.444886 571.226 -1.65607 567.726C-3.38146 565.236 -4.84248 562.51 -6.54517 559.906L-6.3217 559.687Z" fill="#52656F" fill-opacity="0.3"/>
</g>
<defs>
<clipPath id="clip0_312_421">
<rect width="448" height="568" fill="white"/>
</clipPath>
</defs>
</svg>
